# xmcd
#
# Track frame offsets:
# 150
# 22597
# 37993
# 60754
# 72709
# 87304
# 103505
# 114591
# 132179
# 148250
#
# Disc length: 2170 seconds
#
#
# Revision: 0
# Processed by: cddbd v1.5.1PL2 Copyright (c) Steve Scherf et al.
# Submitted via: FreeRIP 2.942 
#
DISCID=8008780a
DTITLE=BB King - Best of BB King
DYEAR=2004
DGENRE=Blues
TTITLE0=The Thrill Is Gone
TTITLE1=How Blue Can You Get
TTITLE2=Every Day I Have The Blues
TTITLE3=Paying The Cost To Be The Boss
TTITLE4=Mr Pawnbroker
TTITLE5=It's My Own Fault Baby
TTITLE6=Catfish Blues
TTITLE7=That Evil Child
TTITLE8=Long Night
TTITLE9=The Other Night Blues
EXTD=
EXTT0=
EXTT1=
EXTT2=
EXTT3=
EXTT4=
EXTT5=
EXTT6=
EXTT7=
EXTT8=
EXTT9=
PLAYORDER=
